.
..............................Site Info...........................

 -   http://www.scenetime.com  *_*    

Scenetime .Always on time . friendly online private torrent community ..

     We care to share . Join us on  http://www.scenetime.com 

    Be the first to get new release at  http://www.scenetime.com

        Seed back for speed


...................................NFO:.................................................General
Unique ID                                : 172737069973475232148492863232111083742 (0x81F3F31626EA724BA8ADD6C2DAA500DE)
Complete name                            : I:UPNicolas Cage Collection part 11984.Bird.HDTVRip.XviD.AC3.by.Waldek.for.SceneTime1984.Bird.HDTVRip.XviD.AC3.by.Waldek.for.SceneTime.mkv
Format                                   : Matroska
Format version                           : Version 2
File size                                : 1.61 GiB
Duration                                 : 1h 55mn
Overall bit rate                         : 1 997 Kbps
Encoded date                             : UTC 2012-03-28 05:22:50
Writing application                      : mkvmerge v5.4.0 ('Piper') built on Mar 10 2012 13:34:39
Writing library                          : libebml v1.2.3 + libmatroska v1.3.0

Video
ID                                       : 1
Format                                   : MPEG-4 Visual
Format profile                           : Advanced Simple@L5
Format settings, BVOP                    : Yes
Format settings, QPel                    : No
Format settings, GMC                     : No warppoints
Format settings, Matrix                  : Custom
Codec ID                                 : XVID
Codec ID/Hint                            : XviD
Duration                                 : 1h 55mn
Bit rate                                 : 1 573 Kbps
Width                                    : 720 pixels
Height                                   : 400 pixels
Display aspect ratio                     : 16:9
Frame rate                               : 25.000 fps
Color space                              : YUV
Chroma subsampling                       : 4:2:0
Bit depth                                : 8 bits
Scan type                                : Progressive
Compression mode                         : Lossy
Bits/(Pixel*Frame)                       : 0.219
Stream size                              : 1.27 GiB (79%)
Writing library                          : XviD 1.2.1 (UTC 2008-12-04)
Default                                  : Yes
Forced                                   : No

Audio
ID                                       : 2
Format                                   : AC-3
Format/Info                              : Audio Coding 3
Mode extension                           : CM (complete main)
Format settings, Endianness              : Big
Muxing mode                              : Header stripping
Codec ID                                 : A_AC3
Duration                                 : 1h 55mn
Bit rate mode                            : Constant
Bit rate                                 : 384 Kbps
Channel(s)                               : 2 channels
Channel positions                        : Front: L R
Sampling rate                            : 48.0 KHz
Bit depth                                : 16 bits
Compression mode                         : Lossy
Stream size                              : 316 MiB (19%)
Language                                 : English
Default                                  : Yes
Forced                                   : No